<svg xmlns="http://www.w3.org/2000/svg" viewBox="1300 43.1 3050 526.9"><style>.st1{fill:#fff;stroke:#fff;stroke-miterlimit:10}</style><path d="M1860.9 316.2c-13.4-5-22.7-10.2-28-15.7-10.4-10.3-15.7-22.7-15.7-37.3 0-14.6 5.4-27.3 16.3-38.2 21.2-21.6 48.8-32.4 82.9-32.4 36.9 0 68.5 14.8 94.8 44.3 2.4 2.8 3.5 6.3 3.3 10.4 0 4.9-1.7 9-5.2 12.5s-7.6 5.2-12.5 5.2-8.8-1.5-11.7-4.6c-2.9-3.1-5.1-5.3-6.4-6.6-17.2-17.2-38-25.8-62.4-25.8s-43.9 7.6-58.5 22.9c-3.5 4.3-5.3 9.3-5.3 15.2.4 6.9 4 11.6 10.8 14.1l108.5 36c13.4 5 22.7 10.2 28 15.7 10.4 10.3 15.7 22.7 15.7 37.3 0 14.6-5.4 27.3-16.3 38.2-21.2 21.6-48.8 32.4-82.9 32.4-37.1 0-68.7-14.8-94.8-44.3-2.2-3.1-3.3-6.5-3.3-10.4 0-4.9 1.7-9 5.2-12.5s7.6-5.2 12.5-5.2 8.7 1.5 11.7 4.6c2.9 3.1 5.1 5.3 6.4 6.6 17.2 17.2 38 25.8 62.4 25.8s43.9-7.6 58.5-22.9c3.5-4.3 5.3-9.3 5.3-15.2-.4-6.9-4-11.6-10.8-14.1zM2242.5 379.7c4.9 0 9 1.7 12.5 5.2s5.2 7.6 5.2 12.5-1.7 9-5.1 12.6c-22.8 19.9-49.6 29.8-80.5 29.8-34.1 0-63.2-12.1-87.3-36.2-24.1-24.1-36.2-53.2-36.2-87.3 0-34.1 12.1-63.2 36.2-87.3 24.1-24.1 53.2-36.2 87.3-36.2 34.1 0 63.2 12.1 87.3 36.2 24.1 24.1 36.2 53.2 36.2 87.3 0 4.9-1.7 9-5.2 12.5s-7.6 5.2-12.5 5.2h-192.5c3.2 16.9 11.3 31.8 24.3 44.8 17.2 17.2 38 25.8 62.4 25.8 22.1 0 41-7 56.9-21 3.2-2.6 6.9-3.9 11-3.9zm18.7-81.1c-3.2-16.9-11.3-31.8-24.3-44.8-17.2-17.2-38-25.8-62.4-25.8s-45.2 8.6-62.4 25.8c-12.9 12.9-21 27.9-24.3 44.8zM2368.7 422.1c0 4.9-1.7 9-5.2 12.5s-7.6 5.2-12.5 5.2-9-1.7-12.5-5.2-5.2-7.6-5.2-12.5V210.3c0-4.9 1.7-9 5.2-12.5s7.6-5.2 12.5-5.2 9 1.7 12.5 5.2 5.2 7.6 5.2 12.5v4.6c17.5-14.9 38.1-22.3 61.8-22.3 26.8 0 49.6 9.5 68.6 28.5 4 4 7.6 8.2 10.8 12.6 3.2-4.4 6.8-8.6 10.8-12.6 19-19 41.8-28.5 68.6-28.5 26.8 0 49.6 9.5 68.6 28.5 19 19 28.5 41.8 28.5 68.6V422c0 4.9-1.7 9-5.2 12.5s-7.6 5.2-12.5 5.2-9-1.7-12.5-5.2-5.2-7.6-5.2-12.5V289.8c0-17.1-6-31.6-18.1-43.7-12.1-12.1-26.6-18.1-43.7-18.1s-31.6 6-43.7 18.1c-12.1 12.1-18.1 26.6-18.1 43.7v132.3c0 4.9-1.7 9-5.2 12.5s-7.6 5.2-12.5 5.2-9-1.7-12.5-5.2-5.2-7.6-5.2-12.5V289.8c0-17.1-6-31.6-18.1-43.7-12.1-12.1-26.6-18.1-43.7-18.1s-31.6 6-43.7 18.1c-12.1 12.1-18.1 26.6-18.1 43.7v132.3zM2913.5 379.3c4.9 0 9 1.7 12.5 5.2s5.2 7.6 5.2 12.5-1.8 9.2-5.5 13c-22.8 19.9-49.6 29.8-80.5 29.8-34.1 0-63.2-12.1-87.3-36.2-24.1-24.1-36.2-53.2-36.2-87.3 0-34.1 12.1-63.2 36.2-87.3 24.1-24.1 53.2-36.2 87.3-36.2 30.9 0 57.7 9.9 80.5 29.8 4.1 3.7 6.2 8.2 6.2 13.7 0 4.9-1.7 9-5.2 12.5s-7.6 5.2-12.5 5.2c-4.3 0-8-1.3-11.2-4-16.5-14.6-35.7-21.8-57.8-21.8-24.4 0-45.2 8.6-62.4 25.8-17.2 17.2-25.8 38-25.8 62.4s8.6 45.2 25.8 62.4c17.2 17.2 38 25.8 62.4 25.8 22.1 0 41.2-7.2 57.6-21.6 3-2.5 6.6-3.7 10.7-3.7zM3215.7 316.2c0 34.1-12.1 63.2-36.2 87.3-24.1 24.1-53.2 36.2-87.3 36.2-34.1 0-63.2-12.1-87.3-36.2-24.1-24.1-36.2-53.2-36.2-87.3 0-34.1 12.1-63.2 36.2-87.3 24.1-24.1 53.2-36.2 87.3-36.2 34.1 0 63.2 12.1 87.3 36.2 24.1 24.1 36.2 53.2 36.2 87.3zM3092.2 228c-24.4 0-45.2 8.6-62.4 25.8-17.2 17.2-25.8 38-25.8 62.4s8.6 45.2 25.8 62.4c17.2 17.2 38 25.8 62.4 25.8s45.2-8.6 62.4-25.8c17.2-17.2 25.8-38 25.8-62.4s-8.6-45.2-25.8-62.4c-17.2-17.2-38-25.8-62.4-25.8zM3286.3 422.1c0 4.9-1.7 9-5.2 12.5s-7.6 5.2-12.5 5.2-9-1.7-12.5-5.2-5.2-7.6-5.2-12.5V210.3c0-4.9 1.7-9 5.2-12.5s7.6-5.2 12.5-5.2 9 1.7 12.5 5.2 5.2 7.6 5.2 12.5v4.6c17.5-14.9 38.1-22.3 61.8-22.3 26.8 0 49.6 9.5 68.6 28.5 4 4 7.6 8.2 10.8 12.6 3.2-4.4 6.8-8.6 10.8-12.6 19-19 41.8-28.5 68.6-28.5 26.8 0 49.6 9.5 68.6 28.5 19 19 28.5 41.8 28.5 68.6V422c0 4.9-1.7 9-5.2 12.5s-7.6 5.2-12.5 5.2-9-1.7-12.5-5.2-5.2-7.6-5.2-12.5V289.8c0-17.1-6-31.6-18.1-43.7-12.1-12.1-26.6-18.1-43.7-18.1s-31.6 6-43.7 18.1c-12.1 12.1-18.1 26.6-18.1 43.7v132.3c0 4.9-1.7 9-5.2 12.5s-7.6 5.2-12.5 5.2-9-1.7-12.5-5.2-5.2-7.6-5.2-12.5V289.8c0-17.1-6-31.6-18.1-43.7-12.1-12.1-26.6-18.1-43.7-18.1s-31.6 6-43.7 18.1c-12.1 12.1-18.1 26.6-18.1 43.7v132.3zM3674.5 528c0 4.9-1.7 9-5.2 12.5s-7.6 5.2-12.5 5.2-9-1.7-12.5-5.2-5.2-7.6-5.2-12.5V316.2c0-34.1 12.1-63.2 36.2-87.3 24.1-24.1 53.2-36.2 87.3-36.2 34.1 0 63.2 12.1 87.3 36.2 24.1 24.1 36.2 53.2 36.2 87.3 0 34.1-12.1 63.2-36.2 87.3-24.1 24.1-53.2 36.2-87.3 36.2-34.1 0-63.2-12.1-87.3-36.2l-.9-.9zm0-211.8c0 24.4 8.6 45.2 25.8 62.4 17.2 17.2 38 25.8 62.4 25.8s45.2-8.6 62.4-25.8c17.2-17.2 25.8-38 25.8-62.4s-8.6-45.2-25.8-62.4c-17.2-17.2-38-25.8-62.4-25.8s-45.2 8.6-62.4 25.8c-17.2 17.2-25.8 38-25.8 62.4zM3969.5 436.8c-4.6-4-7-8.8-7-14.5 0-5.9 2.2-10.7 6.7-14.5l136.6-133.2c20.2-19.3 30.3-36 30.3-50.2 0-17.4-5.4-31.3-16.1-41.8-10.7-10.4-25.4-15.7-44-15.7-11.9 0-22.8 2.6-32.7 7.8-9.9 5.2-17.7 12.2-23.3 21.1-5.6 8.8-8.4 18.3-8.4 28.5 0 5.4-2.3 10-7 14.1-4.6 4-10.5 6-17.5 6-6.7 0-12.5-2-17.3-6-4.8-4-7.2-8.7-7.2-14.1 0-17.9 5-34.1 14.9-48.6s23.5-25.8 40.6-34.1 36.5-12.4 57.9-12.4c21.5 0 40.3 3.9 56.5 11.6 16.2 7.8 28.7 18.8 37.5 33.1s13.2 31.1 13.2 50.4c0 11.8-4.1 24-12.3 36.7-8.2 12.7-18.4 24.8-30.5 36.3l-110.1 104.4h134.6c7 0 13 2 17.8 6 4.8 4 7.2 8.8 7.2 14.5 0 5.6-2.4 10.4-7.2 14.5-4.8 4-10.7 6-17.8 6H3987c-7.1.1-12.9-1.9-17.5-5.9zM4313 436.8c-4.8-4-7.2-8.8-7.2-14.5V177.4l-35.1 12.4c-5.5 1.9-10.6 2.8-15.4 2.8-7.1 0-12.9-1.9-17.5-5.6-4.6-3.7-7-8.6-7-14.5 0-4.5 1.3-8.5 3.8-11.8 2.6-3.3 6.6-5.8 12-7.4l75-22.5c3.8-1.1 6.9-1.6 9.1-1.6 7 0 12.8 1.9 17.3 5.8s6.7 8.9 6.7 15.1v272.2c0 5.6-2.4 10.4-7.2 14.5-4.8 4-10.7 6-17.8 6-6.3 0-11.9-2-16.7-6zM1525.2 545.6c-92.8-.1-176.3-56-211.9-141.6-4-9.7.6-20.8 10.3-24.8 9.7-4 20.8.6 24.8 10.3 19.4 46.9 56.6 84.3 103.7 103.7 97.5 40.4 209.7-6 250.1-103.7 4.5-10.9-.6-23.2-11.5-27.7s-23.2.6-27.7 11.5c-31.6 76-118.8 112-194.8 80.4-57.8-24.1-94.5-81.5-91.7-144.1-32.3 4.6-62.3-17.9-66.9-50.2-1.5-10.5-.1-21.2 3.9-31 48.5-117 182.6-172.6 299.6-124.1 56.2 23.2 100.9 67.9 124.1 124.1 4 9.7-.6 20.8-10.3 24.8-9.7 4-20.8-.6-24.8-10.3-40.5-97.7-152.4-144.1-250.1-103.7-46.9 19.5-84.2 56.7-103.7 103.7-4.4 10.9 1 23.2 11.9 27.6 10.6 4.2 22.7-.7 27.3-11.2 31.4-76 118.7-112.1 194.6-80.6 36.5 15.1 65.4 44.1 80.6 80.6 4 9.7-.6 20.8-10.3 24.8-9.7 4-20.8-.6-24.8-10.3-23.5-56.7-88.4-83.6-145.1-60.1-27.2 11.2-48.9 32.9-60.1 60.1-23.5 56.7 3.5 121.7 60.1 145.1 56.7 23.5 121.7-3.5 145.1-60.1 12.1-30.4 46.4-45.1 76.8-33 30.4 12.1 45.1 46.4 33 76.8l-.6 1.5c-35.4 85.5-118.8 141.3-211.6 141.5z" class="st1" fill="#fff" stroke="#fff" stroke-miterlimit="10"/><path d="M1525.2 266.5c-27.5 0-49.7 22.3-49.7 49.7 0 27.5 22.3 49.7 49.7 49.7 27.5 0 49.7-22.3 49.7-49.7 0-27.4-22.2-49.7-49.7-49.7z" class="st1" fill="#fff" stroke="#fff" stroke-miterlimit="10"/></svg>